<svg width="48" height="48" viewBox="0 0 48 48" fill="none" xmlns="http://www.w3.org/2000/svg">
<path fill-rule="evenodd" clip-rule="evenodd" d="M5 24C5 13.5066 13.5066 5 24 5C34.4934 5 43 13.5066 43 24C43 34.4934 34.4934 43 24 43C21.9167 43 19.9099 42.6643 18.0319 42.0435L12.3162 43.9487C12.0113 44.0503 11.6761 43.9992 11.4153 43.8112C11.1545 43.6233 11 43.3214 11 43V37.8565C7.30824 34.3916 5 29.4647 5 24ZM29.5533 28.0753L34.8534 20.2364C35.378 19.4643 34.3831 18.625 33.6234 19.1789L27.9072 23.2075C27.7194 23.3383 27.4909 23.4089 27.256 23.4089C27.0212 23.4089 26.7927 23.3383 26.6048 23.2075L22.372 20.2532C21.1057 19.3804 19.2968 19.6993 18.4467 20.9247L13.1466 28.7636C12.622 29.5357 13.6169 30.375 14.3766 29.8211L20.0928 25.7925C20.2806 25.6617 20.5091 25.5911 20.744 25.5911C20.9788 25.5911 21.2073 25.6617 21.3952 25.7925L25.628 28.6964C26.8942 29.6196 28.7032 29.3007 29.5533 28.0753Z" fill="#8C8C8C"/>
</svg>
